<svg width="290" height="233" viewBox="0 0 290 233" fill="none" xmlns="http://www.w3.org/2000/svg">
<g style="mix-blend-mode:multiply">
<path d="M0 20C0 8.9543 8.9543 0 20 0H270C281.046 0 290 8.95431 290 20V213C290 224.046 281.046 233 270 233H20C8.9543 233 0 224.046 0 213V20Z" fill="#252525"/>
</g>
<path d="M33.352 133.964H36.768V135H32.078V125.242H33.352V133.964ZM41.467 135.126C40.7483 135.126 40.095 134.963 39.507 134.636C38.9283 134.309 38.471 133.847 38.135 133.25C37.8083 132.643 37.645 131.943 37.645 131.15C37.645 130.366 37.813 129.675 38.149 129.078C38.4943 128.471 38.961 128.009 39.549 127.692C40.137 127.365 40.795 127.202 41.523 127.202C42.251 127.202 42.909 127.365 43.497 127.692C44.085 128.009 44.547 128.467 44.883 129.064C45.2283 129.661 45.401 130.357 45.401 131.15C45.401 131.943 45.2236 132.643 44.869 133.25C44.5236 133.847 44.0523 134.309 43.455 134.636C42.8576 134.963 42.195 135.126 41.467 135.126ZM41.467 134.006C41.9243 134.006 42.3536 133.899 42.755 133.684C43.1563 133.469 43.4783 133.147 43.721 132.718C43.973 132.289 44.099 131.766 44.099 131.15C44.099 130.534 43.9776 130.011 43.735 129.582C43.4923 129.153 43.175 128.835 42.783 128.63C42.391 128.415 41.9663 128.308 41.509 128.308C41.0423 128.308 40.613 128.415 40.221 128.63C39.8383 128.835 39.5303 129.153 39.297 129.582C39.0636 130.011 38.947 130.534 38.947 131.15C38.947 131.775 39.059 132.303 39.283 132.732C39.5163 133.161 39.8243 133.483 40.207 133.698C40.5896 133.903 41.0096 134.006 41.467 134.006ZM48.35 128.574C48.574 128.135 48.8914 127.795 49.302 127.552C49.722 127.309 50.2307 127.188 50.828 127.188V128.504H50.492C49.064 128.504 48.35 129.279 48.35 130.828V135H47.076V127.328H48.35V128.574ZM59.2987 130.87C59.2987 131.113 59.2847 131.369 59.2567 131.64H53.1247C53.1714 132.396 53.428 132.989 53.8947 133.418C54.3707 133.838 54.9447 134.048 55.6167 134.048C56.1674 134.048 56.6247 133.922 56.9887 133.67C57.362 133.409 57.6234 133.063 57.7727 132.634H59.1447C58.9394 133.371 58.5287 133.973 57.9127 134.44C57.2967 134.897 56.5314 135.126 55.6167 135.126C54.8887 135.126 54.2354 134.963 53.6567 134.636C53.0874 134.309 52.6394 133.847 52.3127 133.25C51.986 132.643 51.8227 131.943 51.8227 131.15C51.8227 130.357 51.9814 129.661 52.2987 129.064C52.616 128.467 53.0594 128.009 53.6287 127.692C54.2074 127.365 54.87 127.202 55.6167 127.202C56.3447 127.202 56.9887 127.361 57.5487 127.678C58.1087 127.995 58.538 128.434 58.8367 128.994C59.1447 129.545 59.2987 130.17 59.2987 130.87ZM57.9827 130.604C57.9827 130.119 57.8754 129.703 57.6607 129.358C57.446 129.003 57.152 128.737 56.7787 128.56C56.4147 128.373 56.0087 128.28 55.5607 128.28C54.9167 128.28 54.366 128.485 53.9087 128.896C53.4607 129.307 53.204 129.876 53.1387 130.604H57.9827ZM70.2063 127.188C70.8037 127.188 71.3357 127.314 71.8023 127.566C72.269 127.809 72.6377 128.177 72.9083 128.672C73.179 129.167 73.3143 129.769 73.3143 130.478V135H72.0543V130.66C72.0543 129.895 71.863 129.311 71.4803 128.91C71.107 128.499 70.5983 128.294 69.9543 128.294C69.2917 128.294 68.7643 128.509 68.3723 128.938C67.9803 129.358 67.7843 129.969 67.7843 130.772V135H66.5243V130.66C66.5243 129.895 66.333 129.311 65.9503 128.91C65.577 128.499 65.0683 128.294 64.4243 128.294C63.7617 128.294 63.2343 128.509 62.8423 128.938C62.4503 129.358 62.2543 129.969 62.2543 130.772V135H60.9803V127.328H62.2543V128.434C62.5063 128.033 62.8423 127.725 63.2623 127.51C63.6917 127.295 64.163 127.188 64.6763 127.188C65.3203 127.188 65.8897 127.333 66.3843 127.622C66.879 127.911 67.2477 128.336 67.4903 128.896C67.705 128.355 68.0597 127.935 68.5543 127.636C69.049 127.337 69.5997 127.188 70.2063 127.188ZM79.7946 126.082C79.5519 126.082 79.3466 125.998 79.1786 125.83C79.0106 125.662 78.9266 125.457 78.9266 125.214C78.9266 124.971 79.0106 124.766 79.1786 124.598C79.3466 124.43 79.5519 124.346 79.7946 124.346C80.0279 124.346 80.2239 124.43 80.3826 124.598C80.5506 124.766 80.6346 124.971 80.6346 125.214C80.6346 125.457 80.5506 125.662 80.3826 125.83C80.2239 125.998 80.0279 126.082 79.7946 126.082ZM80.4106 127.328V135H79.1366V127.328H80.4106ZM83.8559 128.742C84.1079 128.303 84.4812 127.939 84.9759 127.65C85.4799 127.351 86.0632 127.202 86.7259 127.202C87.4072 127.202 88.0232 127.365 88.5739 127.692C89.1339 128.019 89.5726 128.481 89.8899 129.078C90.2072 129.666 90.3659 130.352 90.3659 131.136C90.3659 131.911 90.2072 132.601 89.8899 133.208C89.5726 133.815 89.1339 134.286 88.5739 134.622C88.0232 134.958 87.4072 135.126 86.7259 135.126C86.0726 135.126 85.4939 134.981 84.9899 134.692C84.4952 134.393 84.1172 134.025 83.8559 133.586V138.64H82.5819V127.328H83.8559V128.742ZM89.0639 131.136C89.0639 130.557 88.9472 130.053 88.7139 129.624C88.4806 129.195 88.1632 128.868 87.7619 128.644C87.3699 128.42 86.9359 128.308 86.4599 128.308C85.9932 128.308 85.5592 128.425 85.1579 128.658C84.7659 128.882 84.4486 129.213 84.2059 129.652C83.9726 130.081 83.8559 130.581 83.8559 131.15C83.8559 131.729 83.9726 132.237 84.2059 132.676C84.4486 133.105 84.7659 133.437 85.1579 133.67C85.5592 133.894 85.9932 134.006 86.4599 134.006C86.9359 134.006 87.3699 133.894 87.7619 133.67C88.1632 133.437 88.4806 133.105 88.7139 132.676C88.9472 132.237 89.0639 131.724 89.0639 131.136ZM94.7588 135.126C94.1708 135.126 93.6435 135.028 93.1768 134.832C92.7102 134.627 92.3415 134.347 92.0708 133.992C91.8002 133.628 91.6508 133.213 91.6228 132.746H92.9388C92.9762 133.129 93.1535 133.441 93.4708 133.684C93.7975 133.927 94.2222 134.048 94.7448 134.048C95.2302 134.048 95.6128 133.941 95.8928 133.726C96.1728 133.511 96.3128 133.241 96.3128 132.914C96.3128 132.578 96.1635 132.331 95.8648 132.172C95.5662 132.004 95.1042 131.841 94.4788 131.682C93.9095 131.533 93.4428 131.383 93.0788 131.234C92.7242 131.075 92.4162 130.847 92.1548 130.548C91.9028 130.24 91.7768 129.839 91.7768 129.344C91.7768 128.952 91.8935 128.593 92.1268 128.266C92.3602 127.939 92.6915 127.683 93.1208 127.496C93.5502 127.3 94.0402 127.202 94.5908 127.202C95.4402 127.202 96.1262 127.417 96.6488 127.846C97.1715 128.275 97.4515 128.863 97.4888 129.61H96.2148C96.1868 129.209 96.0235 128.887 95.7248 128.644C95.4355 128.401 95.0435 128.28 94.5488 128.28C94.0915 128.28 93.7275 128.378 93.4568 128.574C93.1862 128.77 93.0508 129.027 93.0508 129.344C93.0508 129.596 93.1302 129.806 93.2888 129.974C93.4568 130.133 93.6622 130.263 93.9048 130.366C94.1568 130.459 94.5022 130.567 94.9408 130.688C95.4915 130.837 95.9395 130.987 96.2848 131.136C96.6302 131.276 96.9242 131.491 97.1668 131.78C97.4188 132.069 97.5495 132.447 97.5588 132.914C97.5588 133.334 97.4422 133.712 97.2088 134.048C96.9755 134.384 96.6442 134.65 96.2148 134.846C95.7948 135.033 95.3095 135.126 94.7588 135.126ZM106.161 127.328V135H104.887V133.866C104.645 134.258 104.304 134.566 103.865 134.79C103.436 135.005 102.96 135.112 102.437 135.112C101.84 135.112 101.303 134.991 100.827 134.748C100.351 134.496 99.9733 134.123 99.6933 133.628C99.4226 133.133 99.2873 132.531 99.2873 131.822V127.328H100.547V131.654C100.547 132.41 100.739 132.993 101.121 133.404C101.504 133.805 102.027 134.006 102.689 134.006C103.371 134.006 103.907 133.796 104.299 133.376C104.691 132.956 104.887 132.345 104.887 131.542V127.328H106.161ZM117.538 127.188C118.136 127.188 118.668 127.314 119.134 127.566C119.601 127.809 119.97 128.177 120.24 128.672C120.511 129.167 120.646 129.769 120.646 130.478V135H119.386V130.66C119.386 129.895 119.195 129.311 118.812 128.91C118.439 128.499 117.93 128.294 117.286 128.294C116.624 128.294 116.096 128.509 115.704 128.938C115.312 129.358 115.116 129.969 115.116 130.772V135H113.856V130.66C113.856 129.895 113.665 129.311 113.282 128.91C112.909 128.499 112.4 128.294 111.756 128.294C111.094 128.294 110.566 128.509 110.174 128.938C109.782 129.358 109.586 129.969 109.586 130.772V135H108.312V127.328H109.586V128.434C109.838 128.033 110.174 127.725 110.594 127.51C111.024 127.295 111.495 127.188 112.008 127.188C112.652 127.188 113.222 127.333 113.716 127.622C114.211 127.911 114.58 128.336 114.822 128.896C115.037 128.355 115.392 127.935 115.886 127.636C116.381 127.337 116.932 127.188 117.538 127.188ZM125.993 131.136C125.993 130.352 126.151 129.666 126.469 129.078C126.786 128.481 127.22 128.019 127.771 127.692C128.331 127.365 128.956 127.202 129.647 127.202C130.244 127.202 130.799 127.342 131.313 127.622C131.826 127.893 132.218 128.252 132.489 128.7V124.64H133.777V135H132.489V133.558C132.237 134.015 131.863 134.393 131.369 134.692C130.874 134.981 130.295 135.126 129.633 135.126C128.951 135.126 128.331 134.958 127.771 134.622C127.22 134.286 126.786 133.815 126.469 133.208C126.151 132.601 125.993 131.911 125.993 131.136ZM132.489 131.15C132.489 130.571 132.372 130.067 132.139 129.638C131.905 129.209 131.588 128.882 131.187 128.658C130.795 128.425 130.361 128.308 129.885 128.308C129.409 128.308 128.975 128.42 128.583 128.644C128.191 128.868 127.878 129.195 127.645 129.624C127.411 130.053 127.295 130.557 127.295 131.136C127.295 131.724 127.411 132.237 127.645 132.676C127.878 133.105 128.191 133.437 128.583 133.67C128.975 133.894 129.409 134.006 129.885 134.006C130.361 134.006 130.795 133.894 131.187 133.67C131.588 133.437 131.905 133.105 132.139 132.676C132.372 132.237 132.489 131.729 132.489 131.15ZM139.276 135.126C138.557 135.126 137.904 134.963 137.316 134.636C136.737 134.309 136.28 133.847 135.944 133.25C135.617 132.643 135.454 131.943 135.454 131.15C135.454 130.366 135.622 129.675 135.958 129.078C136.303 128.471 136.77 128.009 137.358 127.692C137.946 127.365 138.604 127.202 139.332 127.202C140.06 127.202 140.718 127.365 141.306 127.692C141.894 128.009 142.356 128.467 142.692 129.064C143.037 129.661 143.21 130.357 143.21 131.15C143.21 131.943 143.032 132.643 142.678 133.25C142.332 133.847 141.861 134.309 141.264 134.636C140.666 134.963 140.004 135.126 139.276 135.126ZM139.276 134.006C139.733 134.006 140.162 133.899 140.564 133.684C140.965 133.469 141.287 133.147 141.53 132.718C141.782 132.289 141.908 131.766 141.908 131.15C141.908 130.534 141.786 130.011 141.544 129.582C141.301 129.153 140.984 128.835 140.592 128.63C140.2 128.415 139.775 128.308 139.318 128.308C138.851 128.308 138.422 128.415 138.03 128.63C137.647 128.835 137.339 129.153 137.106 129.582C136.872 130.011 136.756 130.534 136.756 131.15C136.756 131.775 136.868 132.303 137.092 132.732C137.325 133.161 137.633 133.483 138.016 133.698C138.398 133.903 138.818 134.006 139.276 134.006ZM146.159 124.64V135H144.885V124.64H146.159ZM151.676 135.126C150.957 135.126 150.304 134.963 149.716 134.636C149.137 134.309 148.68 133.847 148.344 133.25C148.017 132.643 147.854 131.943 147.854 131.15C147.854 130.366 148.022 129.675 148.358 129.078C148.703 128.471 149.17 128.009 149.758 127.692C150.346 127.365 151.004 127.202 151.732 127.202C152.46 127.202 153.118 127.365 153.706 127.692C154.294 128.009 154.756 128.467 155.092 129.064C155.437 129.661 155.61 130.357 155.61 131.15C155.61 131.943 155.433 132.643 155.078 133.25C154.733 133.847 154.261 134.309 153.664 134.636C153.067 134.963 152.404 135.126 151.676 135.126ZM151.676 134.006C152.133 134.006 152.563 133.899 152.964 133.684C153.365 133.469 153.687 133.147 153.93 132.718C154.182 132.289 154.308 131.766 154.308 131.15C154.308 130.534 154.187 130.011 153.944 129.582C153.701 129.153 153.384 128.835 152.992 128.63C152.6 128.415 152.175 128.308 151.718 128.308C151.251 128.308 150.822 128.415 150.43 128.63C150.047 128.835 149.739 129.153 149.506 129.582C149.273 130.011 149.156 130.534 149.156 131.15C149.156 131.775 149.268 132.303 149.492 132.732C149.725 133.161 150.033 133.483 150.416 133.698C150.799 133.903 151.219 134.006 151.676 134.006ZM158.559 128.574C158.783 128.135 159.1 127.795 159.511 127.552C159.931 127.309 160.44 127.188 161.037 127.188V128.504H160.701C159.273 128.504 158.559 129.279 158.559 130.828V135H157.285V127.328H158.559V128.574ZM168.956 135.126C168.368 135.126 167.841 135.028 167.374 134.832C166.907 134.627 166.539 134.347 166.268 133.992C165.997 133.628 165.848 133.213 165.82 132.746H167.136C167.173 133.129 167.351 133.441 167.668 133.684C167.995 133.927 168.419 134.048 168.942 134.048C169.427 134.048 169.81 133.941 170.09 133.726C170.37 133.511 170.51 133.241 170.51 132.914C170.51 132.578 170.361 132.331 170.062 132.172C169.763 132.004 169.301 131.841 168.676 131.682C168.107 131.533 167.64 131.383 167.276 131.234C166.921 131.075 166.613 130.847 166.352 130.548C166.1 130.24 165.974 129.839 165.974 129.344C165.974 128.952 166.091 128.593 166.324 128.266C166.557 127.939 166.889 127.683 167.318 127.496C167.747 127.3 168.237 127.202 168.788 127.202C169.637 127.202 170.323 127.417 170.846 127.846C171.369 128.275 171.649 128.863 171.686 129.61H170.412C170.384 129.209 170.221 128.887 169.922 128.644C169.633 128.401 169.241 128.28 168.746 128.28C168.289 128.28 167.925 128.378 167.654 128.574C167.383 128.77 167.248 129.027 167.248 129.344C167.248 129.596 167.327 129.806 167.486 129.974C167.654 130.133 167.859 130.263 168.102 130.366C168.354 130.459 168.699 130.567 169.138 130.688C169.689 130.837 170.137 130.987 170.482 131.136C170.827 131.276 171.121 131.491 171.364 131.78C171.616 132.069 171.747 132.447 171.756 132.914C171.756 133.334 171.639 133.712 171.406 134.048C171.173 134.384 170.841 134.65 170.412 134.846C169.992 135.033 169.507 135.126 168.956 135.126ZM174.213 126.082C173.97 126.082 173.765 125.998 173.597 125.83C173.429 125.662 173.345 125.457 173.345 125.214C173.345 124.971 173.429 124.766 173.597 124.598C173.765 124.43 173.97 124.346 174.213 124.346C174.446 124.346 174.642 124.43 174.801 124.598C174.969 124.766 175.053 124.971 175.053 125.214C175.053 125.457 174.969 125.662 174.801 125.83C174.642 125.998 174.446 126.082 174.213 126.082ZM174.829 127.328V135H173.555V127.328H174.829ZM178.554 128.378V132.9C178.554 133.273 178.633 133.539 178.792 133.698C178.951 133.847 179.226 133.922 179.618 133.922H180.556V135H179.408C178.699 135 178.167 134.837 177.812 134.51C177.457 134.183 177.28 133.647 177.28 132.9V128.378H176.286V127.328H177.28V125.396H178.554V127.328H180.556V128.378H178.554ZM185.356 131.136C185.356 130.352 185.515 129.666 185.832 129.078C186.149 128.481 186.583 128.019 187.134 127.692C187.694 127.365 188.315 127.202 188.996 127.202C189.668 127.202 190.251 127.347 190.746 127.636C191.241 127.925 191.609 128.289 191.852 128.728V127.328H193.14V135H191.852V133.572C191.6 134.02 191.222 134.393 190.718 134.692C190.223 134.981 189.645 135.126 188.982 135.126C188.301 135.126 187.685 134.958 187.134 134.622C186.583 134.286 186.149 133.815 185.832 133.208C185.515 132.601 185.356 131.911 185.356 131.136ZM191.852 131.15C191.852 130.571 191.735 130.067 191.502 129.638C191.269 129.209 190.951 128.882 190.55 128.658C190.158 128.425 189.724 128.308 189.248 128.308C188.772 128.308 188.338 128.42 187.946 128.644C187.554 128.868 187.241 129.195 187.008 129.624C186.775 130.053 186.658 130.557 186.658 131.136C186.658 131.724 186.775 132.237 187.008 132.676C187.241 133.105 187.554 133.437 187.946 133.67C188.338 133.894 188.772 134.006 189.248 134.006C189.724 134.006 190.158 133.894 190.55 133.67C190.951 133.437 191.269 133.105 191.502 132.676C191.735 132.237 191.852 131.729 191.852 131.15ZM204.519 127.188C205.116 127.188 205.648 127.314 206.115 127.566C206.582 127.809 206.95 128.177 207.221 128.672C207.492 129.167 207.627 129.769 207.627 130.478V135H206.367V130.66C206.367 129.895 206.176 129.311 205.793 128.91C205.42 128.499 204.911 128.294 204.267 128.294C203.604 128.294 203.077 128.509 202.685 128.938C202.293 129.358 202.097 129.969 202.097 130.772V135H200.837V130.66C200.837 129.895 200.646 129.311 200.263 128.91C199.89 128.499 199.381 128.294 198.737 128.294C198.074 128.294 197.547 128.509 197.155 128.938C196.763 129.358 196.567 129.969 196.567 130.772V135H195.293V127.328H196.567V128.434C196.819 128.033 197.155 127.725 197.575 127.51C198.004 127.295 198.476 127.188 198.989 127.188C199.633 127.188 200.202 127.333 200.697 127.622C201.192 127.911 201.56 128.336 201.803 128.896C202.018 128.355 202.372 127.935 202.867 127.636C203.362 127.337 203.912 127.188 204.519 127.188ZM216.717 130.87C216.717 131.113 216.703 131.369 216.675 131.64H210.543C210.589 132.396 210.846 132.989 211.313 133.418C211.789 133.838 212.363 134.048 213.035 134.048C213.585 134.048 214.043 133.922 214.407 133.67C214.78 133.409 215.041 133.063 215.191 132.634H216.563C216.357 133.371 215.947 133.973 215.331 134.44C214.715 134.897 213.949 135.126 213.035 135.126C212.307 135.126 211.653 134.963 211.075 134.636C210.505 134.309 210.057 133.847 209.731 133.25C209.404 132.643 209.241 131.943 209.241 131.15C209.241 130.357 209.399 129.661 209.717 129.064C210.034 128.467 210.477 128.009 211.047 127.692C211.625 127.365 212.288 127.202 213.035 127.202C213.763 127.202 214.407 127.361 214.967 127.678C215.527 127.995 215.956 128.434 216.255 128.994C216.563 129.545 216.717 130.17 216.717 130.87ZM215.401 130.604C215.401 130.119 215.293 129.703 215.079 129.358C214.864 129.003 214.57 128.737 214.197 128.56C213.833 128.373 213.427 128.28 212.979 128.28C212.335 128.28 211.784 128.485 211.327 128.896C210.879 129.307 210.622 129.876 210.557 130.604H215.401ZM219.952 128.378V132.9C219.952 133.273 220.032 133.539 220.19 133.698C220.349 133.847 220.624 133.922 221.016 133.922H221.954V135H220.806C220.097 135 219.565 134.837 219.21 134.51C218.856 134.183 218.678 133.647 218.678 132.9V128.378H217.684V127.328H218.678V125.396H219.952V127.328H221.954V128.378H219.952ZM224.814 133.236L223.246 137.002H222.392L223.414 133.236H224.814ZM31.602 159.15C31.602 158.357 31.7607 157.666 32.078 157.078C32.3953 156.481 32.834 156.019 33.394 155.692C33.9633 155.365 34.612 155.202 35.34 155.202C36.2827 155.202 37.0573 155.431 37.664 155.888C38.28 156.345 38.686 156.98 38.882 157.792H37.51C37.3793 157.325 37.1227 156.957 36.74 156.686C36.3667 156.415 35.9 156.28 35.34 156.28C34.612 156.28 34.024 156.532 33.576 157.036C33.128 157.531 32.904 158.235 32.904 159.15C32.904 160.074 33.128 160.788 33.576 161.292C34.024 161.796 34.612 162.048 35.34 162.048C35.9 162.048 36.3667 161.917 36.74 161.656C37.1133 161.395 37.37 161.021 37.51 160.536H38.882C38.6767 161.32 38.266 161.95 37.65 162.426C37.034 162.893 36.264 163.126 35.34 163.126C34.612 163.126 33.9633 162.963 33.394 162.636C32.834 162.309 32.3953 161.847 32.078 161.25C31.7607 160.653 31.602 159.953 31.602 159.15ZM43.9279 163.126C43.2092 163.126 42.5559 162.963 41.9679 162.636C41.3892 162.309 40.9319 161.847 40.5959 161.25C40.2692 160.643 40.1059 159.943 40.1059 159.15C40.1059 158.366 40.2739 157.675 40.6099 157.078C40.9552 156.471 41.4219 156.009 42.0099 155.692C42.5979 155.365 43.2559 155.202 43.9839 155.202C44.7119 155.202 45.3699 155.365 45.9579 155.692C46.5459 156.009 47.0079 156.467 47.3439 157.064C47.6892 157.661 47.8619 158.357 47.8619 159.15C47.8619 159.943 47.6846 160.643 47.3299 161.25C46.9846 161.847 46.5132 162.309 45.9159 162.636C45.3186 162.963 44.6559 163.126 43.9279 163.126ZM43.9279 162.006C44.3852 162.006 44.8146 161.899 45.2159 161.684C45.6172 161.469 45.9392 161.147 46.1819 160.718C46.4339 160.289 46.5599 159.766 46.5599 159.15C46.5599 158.534 46.4386 158.011 46.1959 157.582C45.9532 157.153 45.6359 156.835 45.2439 156.63C44.8519 156.415 44.4272 156.308 43.9699 156.308C43.5032 156.308 43.0739 156.415 42.6819 156.63C42.2992 156.835 41.9912 157.153 41.7579 157.582C41.5246 158.011 41.4079 158.534 41.4079 159.15C41.4079 159.775 41.5199 160.303 41.7439 160.732C41.9772 161.161 42.2852 161.483 42.6679 161.698C43.0506 161.903 43.4706 162.006 43.9279 162.006ZM53.275 155.188C54.2083 155.188 54.9643 155.473 55.543 156.042C56.1217 156.602 56.411 157.414 56.411 158.478V163H55.151V158.66C55.151 157.895 54.9597 157.311 54.577 156.91C54.1943 156.499 53.6717 156.294 53.009 156.294C52.337 156.294 51.8003 156.504 51.399 156.924C51.007 157.344 50.811 157.955 50.811 158.758V163H49.537V155.328H50.811V156.42C51.063 156.028 51.4037 155.725 51.833 155.51C52.2717 155.295 52.7523 155.188 53.275 155.188ZM61.2081 163.126C60.6201 163.126 60.0927 163.028 59.6261 162.832C59.1594 162.627 58.7907 162.347 58.5201 161.992C58.2494 161.628 58.1001 161.213 58.0721 160.746H59.3881C59.4254 161.129 59.6027 161.441 59.9201 161.684C60.2467 161.927 60.6714 162.048 61.1941 162.048C61.6794 162.048 62.0621 161.941 62.3421 161.726C62.6221 161.511 62.7621 161.241 62.7621 160.914C62.7621 160.578 62.6127 160.331 62.3141 160.172C62.0154 160.004 61.5534 159.841 60.9281 159.682C60.3587 159.533 59.8921 159.383 59.5281 159.234C59.1734 159.075 58.8654 158.847 58.6041 158.548C58.3521 158.24 58.2261 157.839 58.2261 157.344C58.2261 156.952 58.3427 156.593 58.5761 156.266C58.8094 155.939 59.1407 155.683 59.5701 155.496C59.9994 155.3 60.4894 155.202 61.0401 155.202C61.8894 155.202 62.5754 155.417 63.0981 155.846C63.6207 156.275 63.9007 156.863 63.9381 157.61H62.6641C62.6361 157.209 62.4727 156.887 62.1741 156.644C61.8847 156.401 61.4927 156.28 60.9981 156.28C60.5407 156.28 60.1767 156.378 59.9061 156.574C59.6354 156.77 59.5001 157.027 59.5001 157.344C59.5001 157.596 59.5794 157.806 59.7381 157.974C59.9061 158.133 60.1114 158.263 60.3541 158.366C60.6061 158.459 60.9514 158.567 61.3901 158.688C61.9407 158.837 62.3887 158.987 62.7341 159.136C63.0794 159.276 63.3734 159.491 63.6161 159.78C63.8681 160.069 63.9987 160.447 64.0081 160.914C64.0081 161.334 63.8914 161.712 63.6581 162.048C63.4247 162.384 63.0934 162.65 62.6641 162.846C62.2441 163.033 61.7587 163.126 61.2081 163.126ZM72.8065 158.87C72.8065 159.113 72.7925 159.369 72.7645 159.64H66.6325C66.6792 160.396 66.9358 160.989 67.4025 161.418C67.8785 161.838 68.4525 162.048 69.1245 162.048C69.6752 162.048 70.1325 161.922 70.4965 161.67C70.8698 161.409 71.1312 161.063 71.2805 160.634H72.6525C72.4472 161.371 72.0365 161.973 71.4205 162.44C70.8045 162.897 70.0392 163.126 69.1245 163.126C68.3965 163.126 67.7432 162.963 67.1645 162.636C66.5952 162.309 66.1472 161.847 65.8205 161.25C65.4938 160.643 65.3305 159.943 65.3305 159.15C65.3305 158.357 65.4892 157.661 65.8065 157.064C66.1238 156.467 66.5672 156.009 67.1365 155.692C67.7152 155.365 68.3778 155.202 69.1245 155.202C69.8525 155.202 70.4965 155.361 71.0565 155.678C71.6165 155.995 72.0458 156.434 72.3445 156.994C72.6525 157.545 72.8065 158.17 72.8065 158.87ZM71.4905 158.604C71.4905 158.119 71.3832 157.703 71.1685 157.358C70.9538 157.003 70.6598 156.737 70.2865 156.56C69.9225 156.373 69.5165 156.28 69.0685 156.28C68.4245 156.28 67.8738 156.485 67.4165 156.896C66.9685 157.307 66.7118 157.876 66.6465 158.604H71.4905ZM74.0122 159.15C74.0122 158.357 74.1708 157.666 74.4882 157.078C74.8055 156.481 75.2442 156.019 75.8042 155.692C76.3735 155.365 77.0222 155.202 77.7502 155.202C78.6928 155.202 79.4675 155.431 80.0742 155.888C80.6902 156.345 81.0962 156.98 81.2922 157.792H79.9202C79.7895 157.325 79.5328 156.957 79.1502 156.686C78.7768 156.415 78.3102 156.28 77.7502 156.28C77.0222 156.28 76.4342 156.532 75.9862 157.036C75.5382 157.531 75.3142 158.235 75.3142 159.15C75.3142 160.074 75.5382 160.788 75.9862 161.292C76.4342 161.796 77.0222 162.048 77.7502 162.048C78.3102 162.048 78.7768 161.917 79.1502 161.656C79.5235 161.395 79.7802 161.021 79.9202 160.536H81.2922C81.0868 161.32 80.6762 161.95 80.0602 162.426C79.4442 162.893 78.6742 163.126 77.7502 163.126C77.0222 163.126 76.3735 162.963 75.8042 162.636C75.2442 162.309 74.8055 161.847 74.4882 161.25C74.1708 160.653 74.0122 159.953 74.0122 159.15ZM84.5461 156.378V160.9C84.5461 161.273 84.6254 161.539 84.7841 161.698C84.9427 161.847 85.2181 161.922 85.6101 161.922H86.5481V163H85.4001C84.6907 163 84.1587 162.837 83.8041 162.51C83.4494 162.183 83.2721 161.647 83.2721 160.9V156.378H82.2781V155.328H83.2721V153.396H84.5461V155.328H86.5481V156.378H84.5461ZM95.0917 158.87C95.0917 159.113 95.0777 159.369 95.0497 159.64H88.9177C88.9643 160.396 89.221 160.989 89.6877 161.418C90.1637 161.838 90.7377 162.048 91.4097 162.048C91.9603 162.048 92.4177 161.922 92.7817 161.67C93.155 161.409 93.4163 161.063 93.5657 160.634H94.9377C94.7323 161.371 94.3217 161.973 93.7057 162.44C93.0897 162.897 92.3243 163.126 91.4097 163.126C90.6817 163.126 90.0283 162.963 89.4497 162.636C88.8803 162.309 88.4323 161.847 88.1057 161.25C87.779 160.643 87.6157 159.943 87.6157 159.15C87.6157 158.357 87.7743 157.661 88.0917 157.064C88.409 156.467 88.8523 156.009 89.4217 155.692C90.0003 155.365 90.663 155.202 91.4097 155.202C92.1377 155.202 92.7817 155.361 93.3417 155.678C93.9017 155.995 94.331 156.434 94.6297 156.994C94.9377 157.545 95.0917 158.17 95.0917 158.87ZM93.7757 158.604C93.7757 158.119 93.6683 157.703 93.4537 157.358C93.239 157.003 92.945 156.737 92.5717 156.56C92.2077 156.373 91.8017 156.28 91.3537 156.28C90.7097 156.28 90.159 156.485 89.7017 156.896C89.2537 157.307 88.997 157.876 88.9317 158.604H93.7757ZM98.3273 156.378V160.9C98.3273 161.273 98.4066 161.539 98.5653 161.698C98.724 161.847 98.9993 161.922 99.3913 161.922H100.329V163H99.1813C98.472 163 97.94 162.837 97.5853 162.51C97.2306 162.183 97.0533 161.647 97.0533 160.9V156.378H96.0593V155.328H97.0533V153.396H98.3273V155.328H100.329V156.378H98.3273ZM108.677 155.328V163H107.403V161.866C107.16 162.258 106.82 162.566 106.381 162.79C105.952 163.005 105.476 163.112 104.953 163.112C104.356 163.112 103.819 162.991 103.343 162.748C102.867 162.496 102.489 162.123 102.209 161.628C101.938 161.133 101.803 160.531 101.803 159.822V155.328H103.063V159.654C103.063 160.41 103.254 160.993 103.637 161.404C104.02 161.805 104.542 162.006 105.205 162.006C105.886 162.006 106.423 161.796 106.815 161.376C107.207 160.956 107.403 160.345 107.403 159.542V155.328H108.677ZM112.102 156.574C112.326 156.135 112.643 155.795 113.054 155.552C113.474 155.309 113.983 155.188 114.58 155.188V156.504H114.244C112.816 156.504 112.102 157.279 112.102 158.828V163H110.828V155.328H112.102V156.574ZM119.307 159.136C119.307 158.352 119.466 157.666 119.783 157.078C120.1 156.481 120.534 156.019 121.085 155.692C121.645 155.365 122.266 155.202 122.947 155.202C123.619 155.202 124.202 155.347 124.697 155.636C125.192 155.925 125.56 156.289 125.803 156.728V155.328H127.091V163H125.803V161.572C125.551 162.02 125.173 162.393 124.669 162.692C124.174 162.981 123.596 163.126 122.933 163.126C122.252 163.126 121.636 162.958 121.085 162.622C120.534 162.286 120.1 161.815 119.783 161.208C119.466 160.601 119.307 159.911 119.307 159.136ZM125.803 159.15C125.803 158.571 125.686 158.067 125.453 157.638C125.22 157.209 124.902 156.882 124.501 156.658C124.109 156.425 123.675 156.308 123.199 156.308C122.723 156.308 122.289 156.42 121.897 156.644C121.505 156.868 121.192 157.195 120.959 157.624C120.726 158.053 120.609 158.557 120.609 159.136C120.609 159.724 120.726 160.237 120.959 160.676C121.192 161.105 121.505 161.437 121.897 161.67C122.289 161.894 122.723 162.006 123.199 162.006C123.675 162.006 124.109 161.894 124.501 161.67C124.902 161.437 125.22 161.105 125.453 160.676C125.686 160.237 125.803 159.729 125.803 159.15ZM128.768 159.136C128.768 158.352 128.927 157.666 129.244 157.078C129.561 156.481 129.995 156.019 130.546 155.692C131.106 155.365 131.731 155.202 132.422 155.202C133.019 155.202 133.575 155.342 134.088 155.622C134.601 155.893 134.993 156.252 135.264 156.7V152.64H136.552V163H135.264V161.558C135.012 162.015 134.639 162.393 134.144 162.692C133.649 162.981 133.071 163.126 132.408 163.126C131.727 163.126 131.106 162.958 130.546 162.622C129.995 162.286 129.561 161.815 129.244 161.208C128.927 160.601 128.768 159.911 128.768 159.136ZM135.264 159.15C135.264 158.571 135.147 158.067 134.914 157.638C134.681 157.209 134.363 156.882 133.962 156.658C133.57 156.425 133.136 156.308 132.66 156.308C132.184 156.308 131.75 156.42 131.358 156.644C130.966 156.868 130.653 157.195 130.42 157.624C130.187 158.053 130.07 158.557 130.07 159.136C130.07 159.724 130.187 160.237 130.42 160.676C130.653 161.105 130.966 161.437 131.358 161.67C131.75 161.894 132.184 162.006 132.66 162.006C133.136 162.006 133.57 161.894 133.962 161.67C134.363 161.437 134.681 161.105 134.914 160.676C135.147 160.237 135.264 159.729 135.264 159.15ZM139.363 154.082C139.12 154.082 138.915 153.998 138.747 153.83C138.579 153.662 138.495 153.457 138.495 153.214C138.495 152.971 138.579 152.766 138.747 152.598C138.915 152.43 139.12 152.346 139.363 152.346C139.596 152.346 139.792 152.43 139.951 152.598C140.119 152.766 140.203 152.971 140.203 153.214C140.203 153.457 140.119 153.662 139.951 153.83C139.792 153.998 139.596 154.082 139.363 154.082ZM139.979 155.328V163H138.705V155.328H139.979ZM143.424 156.742C143.676 156.303 144.05 155.939 144.544 155.65C145.048 155.351 145.632 155.202 146.294 155.202C146.976 155.202 147.592 155.365 148.142 155.692C148.702 156.019 149.141 156.481 149.458 157.078C149.776 157.666 149.934 158.352 149.934 159.136C149.934 159.911 149.776 160.601 149.458 161.208C149.141 161.815 148.702 162.286 148.142 162.622C147.592 162.958 146.976 163.126 146.294 163.126C145.641 163.126 145.062 162.981 144.558 162.692C144.064 162.393 143.686 162.025 143.424 161.586V166.64H142.15V155.328H143.424V156.742ZM148.632 159.136C148.632 158.557 148.516 158.053 148.282 157.624C148.049 157.195 147.732 156.868 147.33 156.644C146.938 156.42 146.504 156.308 146.028 156.308C145.562 156.308 145.128 156.425 144.726 156.658C144.334 156.882 144.017 157.213 143.774 157.652C143.541 158.081 143.424 158.581 143.424 159.15C143.424 159.729 143.541 160.237 143.774 160.676C144.017 161.105 144.334 161.437 144.726 161.67C145.128 161.894 145.562 162.006 146.028 162.006C146.504 162.006 146.938 161.894 147.33 161.67C147.732 161.437 148.049 161.105 148.282 160.676C148.516 160.237 148.632 159.724 148.632 159.136ZM152.269 154.082C152.027 154.082 151.821 153.998 151.653 153.83C151.485 153.662 151.401 153.457 151.401 153.214C151.401 152.971 151.485 152.766 151.653 152.598C151.821 152.43 152.027 152.346 152.269 152.346C152.503 152.346 152.699 152.43 152.857 152.598C153.025 152.766 153.109 152.971 153.109 153.214C153.109 153.457 153.025 153.662 152.857 153.83C152.699 153.998 152.503 154.082 152.269 154.082ZM152.885 155.328V163H151.611V155.328H152.885ZM157.773 163.126C157.185 163.126 156.657 163.028 156.191 162.832C155.724 162.627 155.355 162.347 155.085 161.992C154.814 161.628 154.665 161.213 154.637 160.746H155.953C155.99 161.129 156.167 161.441 156.485 161.684C156.811 161.927 157.236 162.048 157.759 162.048C158.244 162.048 158.627 161.941 158.907 161.726C159.187 161.511 159.327 161.241 159.327 160.914C159.327 160.578 159.177 160.331 158.879 160.172C158.58 160.004 158.118 159.841 157.493 159.682C156.923 159.533 156.457 159.383 156.093 159.234C155.738 159.075 155.43 158.847 155.169 158.548C154.917 158.24 154.791 157.839 154.791 157.344C154.791 156.952 154.907 156.593 155.141 156.266C155.374 155.939 155.705 155.683 156.135 155.496C156.564 155.3 157.054 155.202 157.605 155.202C158.454 155.202 159.14 155.417 159.663 155.846C160.185 156.275 160.465 156.863 160.503 157.61H159.229C159.201 157.209 159.037 156.887 158.739 156.644C158.449 156.401 158.057 156.28 157.563 156.28C157.105 156.28 156.741 156.378 156.471 156.574C156.2 156.77 156.065 157.027 156.065 157.344C156.065 157.596 156.144 157.806 156.303 157.974C156.471 158.133 156.676 158.263 156.919 158.366C157.171 158.459 157.516 158.567 157.955 158.688C158.505 158.837 158.953 158.987 159.299 159.136C159.644 159.276 159.938 159.491 160.181 159.78C160.433 160.069 160.563 160.447 160.573 160.914C160.573 161.334 160.456 161.712 160.223 162.048C159.989 162.384 159.658 162.65 159.229 162.846C158.809 163.033 158.323 163.126 157.773 163.126ZM161.895 159.15C161.895 158.357 162.054 157.666 162.371 157.078C162.688 156.481 163.127 156.019 163.687 155.692C164.256 155.365 164.905 155.202 165.633 155.202C166.576 155.202 167.35 155.431 167.957 155.888C168.573 156.345 168.979 156.98 169.175 157.792H167.803C167.672 157.325 167.416 156.957 167.033 156.686C166.66 156.415 166.193 156.28 165.633 156.28C164.905 156.28 164.317 156.532 163.869 157.036C163.421 157.531 163.197 158.235 163.197 159.15C163.197 160.074 163.421 160.788 163.869 161.292C164.317 161.796 164.905 162.048 165.633 162.048C166.193 162.048 166.66 161.917 167.033 161.656C167.406 161.395 167.663 161.021 167.803 160.536H169.175C168.97 161.32 168.559 161.95 167.943 162.426C167.327 162.893 166.557 163.126 165.633 163.126C164.905 163.126 164.256 162.963 163.687 162.636C163.127 162.309 162.688 161.847 162.371 161.25C162.054 160.653 161.895 159.953 161.895 159.15ZM171.533 154.082C171.29 154.082 171.085 153.998 170.917 153.83C170.749 153.662 170.665 153.457 170.665 153.214C170.665 152.971 170.749 152.766 170.917 152.598C171.085 152.43 171.29 152.346 171.533 152.346C171.766 152.346 171.962 152.43 172.121 152.598C172.289 152.766 172.373 152.971 172.373 153.214C172.373 153.457 172.289 153.662 172.121 153.83C171.962 153.998 171.766 154.082 171.533 154.082ZM172.149 155.328V163H170.875V155.328H172.149ZM178.058 155.188C178.992 155.188 179.748 155.473 180.326 156.042C180.905 156.602 181.194 157.414 181.194 158.478V163H179.934V158.66C179.934 157.895 179.743 157.311 179.36 156.91C178.978 156.499 178.455 156.294 177.792 156.294C177.12 156.294 176.584 156.504 176.182 156.924C175.79 157.344 175.594 157.955 175.594 158.758V163H174.32V155.328H175.594V156.42C175.846 156.028 176.187 155.725 176.616 155.51C177.055 155.295 177.536 155.188 178.058 155.188ZM186.439 155.202C187.102 155.202 187.681 155.347 188.175 155.636C188.679 155.925 189.053 156.289 189.295 156.728V155.328H190.583V163.168C190.583 163.868 190.434 164.489 190.135 165.03C189.837 165.581 189.407 166.01 188.847 166.318C188.297 166.626 187.653 166.78 186.915 166.78C185.907 166.78 185.067 166.542 184.395 166.066C183.723 165.59 183.327 164.941 183.205 164.12H184.465C184.605 164.587 184.895 164.96 185.333 165.24C185.772 165.529 186.299 165.674 186.915 165.674C187.615 165.674 188.185 165.455 188.623 165.016C189.071 164.577 189.295 163.961 189.295 163.168V161.558C189.043 162.006 188.67 162.379 188.175 162.678C187.681 162.977 187.102 163.126 186.439 163.126C185.758 163.126 185.137 162.958 184.577 162.622C184.027 162.286 183.593 161.815 183.275 161.208C182.958 160.601 182.799 159.911 182.799 159.136C182.799 158.352 182.958 157.666 183.275 157.078C183.593 156.481 184.027 156.019 184.577 155.692C185.137 155.365 185.758 155.202 186.439 155.202ZM189.295 159.15C189.295 158.571 189.179 158.067 188.945 157.638C188.712 157.209 188.395 156.882 187.993 156.658C187.601 156.425 187.167 156.308 186.691 156.308C186.215 156.308 185.781 156.42 185.389 156.644C184.997 156.868 184.685 157.195 184.451 157.624C184.218 158.053 184.101 158.557 184.101 159.136C184.101 159.724 184.218 160.237 184.451 160.676C184.685 161.105 184.997 161.437 185.389 161.67C185.781 161.894 186.215 162.006 186.691 162.006C187.167 162.006 187.601 161.894 187.993 161.67C188.395 161.437 188.712 161.105 188.945 160.676C189.179 160.237 189.295 159.729 189.295 159.15ZM203.469 158.87C203.469 159.113 203.455 159.369 203.427 159.64H197.295C197.341 160.396 197.598 160.989 198.065 161.418C198.541 161.838 199.115 162.048 199.787 162.048C200.337 162.048 200.795 161.922 201.159 161.67C201.532 161.409 201.793 161.063 201.943 160.634H203.315C203.109 161.371 202.699 161.973 202.083 162.44C201.467 162.897 200.701 163.126 199.787 163.126C199.059 163.126 198.405 162.963 197.827 162.636C197.257 162.309 196.809 161.847 196.483 161.25C196.156 160.643 195.993 159.943 195.993 159.15C195.993 158.357 196.151 157.661 196.469 157.064C196.786 156.467 197.229 156.009 197.799 155.692C198.377 155.365 199.04 155.202 199.787 155.202C200.515 155.202 201.159 155.361 201.719 155.678C202.279 155.995 202.708 156.434 203.007 156.994C203.315 157.545 203.469 158.17 203.469 158.87ZM202.153 158.604C202.153 158.119 202.045 157.703 201.831 157.358C201.616 157.003 201.322 156.737 200.949 156.56C200.585 156.373 200.179 156.28 199.731 156.28C199.087 156.28 198.536 156.485 198.079 156.896C197.631 157.307 197.374 157.876 197.309 158.604H202.153ZM206.424 152.64V163H205.15V152.64H206.424ZM209.254 154.082C209.011 154.082 208.806 153.998 208.638 153.83C208.47 153.662 208.386 153.457 208.386 153.214C208.386 152.971 208.47 152.766 208.638 152.598C208.806 152.43 209.011 152.346 209.254 152.346C209.487 152.346 209.683 152.43 209.842 152.598C210.01 152.766 210.094 152.971 210.094 153.214C210.094 153.457 210.01 153.662 209.842 153.83C209.683 153.998 209.487 154.082 209.254 154.082ZM209.87 155.328V163H208.596V155.328H209.87ZM213.595 156.378V160.9C213.595 161.273 213.674 161.539 213.833 161.698C213.992 161.847 214.267 161.922 214.659 161.922H215.597V163H214.449C213.74 163 213.208 162.837 212.853 162.51C212.498 162.183 212.321 161.647 212.321 160.9V156.378H211.327V155.328H212.321V153.396H213.595V155.328H215.597V156.378H213.595ZM217.547 163.084C217.304 163.084 217.099 163 216.931 162.832C216.763 162.664 216.679 162.459 216.679 162.216C216.679 161.973 216.763 161.768 216.931 161.6C217.099 161.432 217.304 161.348 217.547 161.348C217.78 161.348 217.976 161.432 218.135 161.6C218.303 161.768 218.387 161.973 218.387 162.216C218.387 162.459 218.303 162.664 218.135 162.832C217.976 163 217.78 163.084 217.547 163.084ZM31.602 186.114C31.602 185.162 31.8167 184.308 32.246 183.552C32.6753 182.787 33.2587 182.189 33.996 181.76C34.7427 181.331 35.5687 181.116 36.474 181.116C37.538 181.116 38.4667 181.373 39.26 181.886C40.0533 182.399 40.632 183.127 40.996 184.07H39.47C39.1993 183.482 38.8073 183.029 38.294 182.712C37.79 182.395 37.1833 182.236 36.474 182.236C35.7927 182.236 35.1813 182.395 34.64 182.712C34.0987 183.029 33.674 183.482 33.366 184.07C33.058 184.649 32.904 185.33 32.904 186.114C32.904 186.889 33.058 187.57 33.366 188.158C33.674 188.737 34.0987 189.185 34.64 189.502C35.1813 189.819 35.7927 189.978 36.474 189.978C37.1833 189.978 37.79 189.824 38.294 189.516C38.8073 189.199 39.1993 188.746 39.47 188.158H40.996C40.632 189.091 40.0533 189.815 39.26 190.328C38.4667 190.832 37.538 191.084 36.474 191.084C35.5687 191.084 34.7427 190.874 33.996 190.454C33.2587 190.025 32.6753 189.432 32.246 188.676C31.8167 187.92 31.602 187.066 31.602 186.114ZM49.6965 183.328V191H48.4225V189.866C48.1798 190.258 47.8391 190.566 47.4005 190.79C46.9711 191.005 46.4951 191.112 45.9725 191.112C45.3751 191.112 44.8385 190.991 44.3625 190.748C43.8865 190.496 43.5085 190.123 43.2285 189.628C42.9578 189.133 42.8225 188.531 42.8225 187.822V183.328H44.0825V187.654C44.0825 188.41 44.2738 188.993 44.6565 189.404C45.0391 189.805 45.5618 190.006 46.2245 190.006C46.9058 190.006 47.4425 189.796 47.8345 189.376C48.2265 188.956 48.4225 188.345 48.4225 187.542V183.328H49.6965ZM53.1215 184.574C53.3455 184.135 53.6629 183.795 54.0735 183.552C54.4935 183.309 55.0022 183.188 55.5995 183.188V184.504H55.2635C53.8355 184.504 53.1215 185.279 53.1215 186.828V191H51.8475V183.328H53.1215V184.574ZM56.5942 187.136C56.5942 186.352 56.7529 185.666 57.0702 185.078C57.3875 184.481 57.8215 184.019 58.3722 183.692C58.9322 183.365 59.5529 183.202 60.2342 183.202C60.9062 183.202 61.4895 183.347 61.9842 183.636C62.4789 183.925 62.8475 184.289 63.0902 184.728V183.328H64.3782V191H63.0902V189.572C62.8382 190.02 62.4602 190.393 61.9562 190.692C61.4615 190.981 60.8829 191.126 60.2202 191.126C59.5389 191.126 58.9229 190.958 58.3722 190.622C57.8215 190.286 57.3875 189.815 57.0702 189.208C56.7529 188.601 56.5942 187.911 56.5942 187.136ZM63.0902 187.15C63.0902 186.571 62.9735 186.067 62.7402 185.638C62.5069 185.209 62.1895 184.882 61.7882 184.658C61.3962 184.425 60.9622 184.308 60.4862 184.308C60.0102 184.308 59.5762 184.42 59.1842 184.644C58.7922 184.868 58.4795 185.195 58.2462 185.624C58.0129 186.053 57.8962 186.557 57.8962 187.136C57.8962 187.724 58.0129 188.237 58.2462 188.676C58.4795 189.105 58.7922 189.437 59.1842 189.67C59.5762 189.894 60.0102 190.006 60.4862 190.006C60.9622 190.006 61.3962 189.894 61.7882 189.67C62.1895 189.437 62.5069 189.105 62.7402 188.676C62.9735 188.237 63.0902 187.729 63.0902 187.15ZM67.8051 184.756C68.0665 184.299 68.4491 183.925 68.9531 183.636C69.4571 183.347 70.0311 183.202 70.6751 183.202C71.3658 183.202 71.9865 183.365 72.5371 183.692C73.0878 184.019 73.5218 184.481 73.8391 185.078C74.1565 185.666 74.3151 186.352 74.3151 187.136C74.3151 187.911 74.1565 188.601 73.8391 189.208C73.5218 189.815 73.0831 190.286 72.5231 190.622C71.9725 190.958 71.3565 191.126 70.6751 191.126C70.0125 191.126 69.4291 190.981 68.9251 190.692C68.4305 190.403 68.0571 190.034 67.8051 189.586V191H66.5311V180.64H67.8051V184.756ZM73.0131 187.136C73.0131 186.557 72.8965 186.053 72.6631 185.624C72.4298 185.195 72.1125 184.868 71.7111 184.644C71.3191 184.42 70.8851 184.308 70.4091 184.308C69.9425 184.308 69.5085 184.425 69.1071 184.658C68.7151 184.882 68.3978 185.213 68.1551 185.652C67.9218 186.081 67.8051 186.581 67.8051 187.15C67.8051 187.729 67.9218 188.237 68.1551 188.676C68.3978 189.105 68.7151 189.437 69.1071 189.67C69.5085 189.894 69.9425 190.006 70.4091 190.006C70.8851 190.006 71.3191 189.894 71.7111 189.67C72.1125 189.437 72.4298 189.105 72.6631 188.676C72.8965 188.237 73.0131 187.724 73.0131 187.136ZM76.6501 182.082C76.4074 182.082 76.2021 181.998 76.0341 181.83C75.8661 181.662 75.7821 181.457 75.7821 181.214C75.7821 180.971 75.8661 180.766 76.0341 180.598C76.2021 180.43 76.4074 180.346 76.6501 180.346C76.8834 180.346 77.0794 180.43 77.2381 180.598C77.4061 180.766 77.4901 180.971 77.4901 181.214C77.4901 181.457 77.4061 181.662 77.2381 181.83C77.0794 181.998 76.8834 182.082 76.6501 182.082ZM77.2661 183.328V191H75.9921V183.328H77.2661ZM80.9914 184.378V188.9C80.9914 189.273 81.0707 189.539 81.2294 189.698C81.388 189.847 81.6634 189.922 82.0554 189.922H82.9934V191H81.8454C81.136 191 80.604 190.837 80.2494 190.51C79.8947 190.183 79.7174 189.647 79.7174 188.9V184.378H78.7234V183.328H79.7174V181.396H80.9914V183.328H82.9934V184.378H80.9914ZM91.341 183.328V191H90.067V189.866C89.8243 190.258 89.4837 190.566 89.045 190.79C88.6157 191.005 88.1397 191.112 87.617 191.112C87.0197 191.112 86.483 190.991 86.007 190.748C85.531 190.496 85.153 190.123 84.873 189.628C84.6023 189.133 84.467 188.531 84.467 187.822V183.328H85.727V187.654C85.727 188.41 85.9183 188.993 86.301 189.404C86.6837 189.805 87.2063 190.006 87.869 190.006C88.5503 190.006 89.087 189.796 89.479 189.376C89.871 188.956 90.067 188.345 90.067 187.542V183.328H91.341ZM94.7661 184.574C94.9901 184.135 95.3074 183.795 95.7181 183.552C96.1381 183.309 96.6467 183.188 97.2441 183.188V184.504H96.9081C95.4801 184.504 94.7661 185.279 94.7661 186.828V191H93.4921V183.328H94.7661V184.574ZM105.163 191.126C104.575 191.126 104.048 191.028 103.581 190.832C103.114 190.627 102.746 190.347 102.475 189.992C102.204 189.628 102.055 189.213 102.027 188.746H103.343C103.38 189.129 103.558 189.441 103.875 189.684C104.202 189.927 104.626 190.048 105.149 190.048C105.634 190.048 106.017 189.941 106.297 189.726C106.577 189.511 106.717 189.241 106.717 188.914C106.717 188.578 106.568 188.331 106.269 188.172C105.97 188.004 105.508 187.841 104.883 187.682C104.314 187.533 103.847 187.383 103.483 187.234C103.128 187.075 102.82 186.847 102.559 186.548C102.307 186.24 102.181 185.839 102.181 185.344C102.181 184.952 102.298 184.593 102.531 184.266C102.764 183.939 103.096 183.683 103.525 183.496C103.954 183.3 104.444 183.202 104.995 183.202C105.844 183.202 106.53 183.417 107.053 183.846C107.576 184.275 107.856 184.863 107.893 185.61H106.619C106.591 185.209 106.428 184.887 106.129 184.644C105.84 184.401 105.448 184.28 104.953 184.28C104.496 184.28 104.132 184.378 103.861 184.574C103.59 184.77 103.455 185.027 103.455 185.344C103.455 185.596 103.534 185.806 103.693 185.974C103.861 186.133 104.066 186.263 104.309 186.366C104.561 186.459 104.906 186.567 105.345 186.688C105.896 186.837 106.344 186.987 106.689 187.136C107.034 187.276 107.328 187.491 107.571 187.78C107.823 188.069 107.954 188.447 107.963 188.914C107.963 189.334 107.846 189.712 107.613 190.048C107.38 190.384 107.048 190.65 106.619 190.846C106.199 191.033 105.714 191.126 105.163 191.126ZM110.42 182.082C110.177 182.082 109.972 181.998 109.804 181.83C109.636 181.662 109.552 181.457 109.552 181.214C109.552 180.971 109.636 180.766 109.804 180.598C109.972 180.43 110.177 180.346 110.42 180.346C110.653 180.346 110.849 180.43 111.008 180.598C111.176 180.766 111.26 180.971 111.26 181.214C111.26 181.457 111.176 181.662 111.008 181.83C110.849 181.998 110.653 182.082 110.42 182.082ZM111.036 183.328V191H109.762V183.328H111.036ZM114.761 184.378V188.9C114.761 189.273 114.84 189.539 114.999 189.698C115.158 189.847 115.433 189.922 115.825 189.922H116.763V191H115.615C114.906 191 114.374 190.837 114.019 190.51C113.664 190.183 113.487 189.647 113.487 188.9V184.378H112.493V183.328H113.487V181.396H114.761V183.328H116.763V184.378H114.761ZM121.563 187.136C121.563 186.352 121.722 185.666 122.039 185.078C122.356 184.481 122.79 184.019 123.341 183.692C123.901 183.365 124.522 183.202 125.203 183.202C125.875 183.202 126.458 183.347 126.953 183.636C127.448 183.925 127.816 184.289 128.059 184.728V183.328H129.347V191H128.059V189.572C127.807 190.02 127.429 190.393 126.925 190.692C126.43 190.981 125.852 191.126 125.189 191.126C124.508 191.126 123.892 190.958 123.341 190.622C122.79 190.286 122.356 189.815 122.039 189.208C121.722 188.601 121.563 187.911 121.563 187.136ZM128.059 187.15C128.059 186.571 127.942 186.067 127.709 185.638C127.476 185.209 127.158 184.882 126.757 184.658C126.365 184.425 125.931 184.308 125.455 184.308C124.979 184.308 124.545 184.42 124.153 184.644C123.761 184.868 123.448 185.195 123.215 185.624C122.982 186.053 122.865 186.557 122.865 187.136C122.865 187.724 122.982 188.237 123.215 188.676C123.448 189.105 123.761 189.437 124.153 189.67C124.545 189.894 124.979 190.006 125.455 190.006C125.931 190.006 126.365 189.894 126.757 189.67C127.158 189.437 127.476 189.105 127.709 188.676C127.942 188.237 128.059 187.729 128.059 187.15ZM140.726 183.188C141.323 183.188 141.855 183.314 142.322 183.566C142.789 183.809 143.157 184.177 143.428 184.672C143.699 185.167 143.834 185.769 143.834 186.478V191H142.574V186.66C142.574 185.895 142.383 185.311 142 184.91C141.627 184.499 141.118 184.294 140.474 184.294C139.811 184.294 139.284 184.509 138.892 184.938C138.5 185.358 138.304 185.969 138.304 186.772V191H137.044V186.66C137.044 185.895 136.853 185.311 136.47 184.91C136.097 184.499 135.588 184.294 134.944 184.294C134.281 184.294 133.754 184.509 133.362 184.938C132.97 185.358 132.774 185.969 132.774 186.772V191H131.5V183.328H132.774V184.434C133.026 184.033 133.362 183.725 133.782 183.51C134.211 183.295 134.683 183.188 135.196 183.188C135.84 183.188 136.409 183.333 136.904 183.622C137.399 183.911 137.767 184.336 138.01 184.896C138.225 184.355 138.579 183.935 139.074 183.636C139.569 183.337 140.119 183.188 140.726 183.188ZM152.924 186.87C152.924 187.113 152.91 187.369 152.882 187.64H146.75C146.796 188.396 147.053 188.989 147.52 189.418C147.996 189.838 148.57 190.048 149.242 190.048C149.792 190.048 150.25 189.922 150.614 189.67C150.987 189.409 151.248 189.063 151.398 188.634H152.77C152.564 189.371 152.154 189.973 151.538 190.44C150.922 190.897 150.156 191.126 149.242 191.126C148.514 191.126 147.86 190.963 147.282 190.636C146.712 190.309 146.264 189.847 145.938 189.25C145.611 188.643 145.448 187.943 145.448 187.15C145.448 186.357 145.606 185.661 145.924 185.064C146.241 184.467 146.684 184.009 147.254 183.692C147.832 183.365 148.495 183.202 149.242 183.202C149.97 183.202 150.614 183.361 151.174 183.678C151.734 183.995 152.163 184.434 152.462 184.994C152.77 185.545 152.924 186.17 152.924 186.87ZM151.608 186.604C151.608 186.119 151.5 185.703 151.286 185.358C151.071 185.003 150.777 184.737 150.404 184.56C150.04 184.373 149.634 184.28 149.186 184.28C148.542 184.28 147.991 184.485 147.534 184.896C147.086 185.307 146.829 185.876 146.764 186.604H151.608ZM156.159 184.378V188.9C156.159 189.273 156.239 189.539 156.397 189.698C156.556 189.847 156.831 189.922 157.223 189.922H158.161V191H157.013C156.304 191 155.772 190.837 155.417 190.51C155.063 190.183 154.885 189.647 154.885 188.9V184.378H153.891V183.328H154.885V181.396H156.159V183.328H158.161V184.378H156.159ZM170.437 186.87C170.437 187.113 170.423 187.369 170.395 187.64H164.263C164.31 188.396 164.567 188.989 165.033 189.418C165.509 189.838 166.083 190.048 166.755 190.048C167.306 190.048 167.763 189.922 168.127 189.67C168.501 189.409 168.762 189.063 168.911 188.634H170.283C170.078 189.371 169.667 189.973 169.051 190.44C168.435 190.897 167.67 191.126 166.755 191.126C166.027 191.126 165.374 190.963 164.795 190.636C164.226 190.309 163.778 189.847 163.451 189.25C163.125 188.643 162.961 187.943 162.961 187.15C162.961 186.357 163.12 185.661 163.437 185.064C163.755 184.467 164.198 184.009 164.767 183.692C165.346 183.365 166.009 183.202 166.755 183.202C167.483 183.202 168.127 183.361 168.687 183.678C169.247 183.995 169.677 184.434 169.975 184.994C170.283 185.545 170.437 186.17 170.437 186.87ZM169.121 186.604C169.121 186.119 169.014 185.703 168.799 185.358C168.585 185.003 168.291 184.737 167.917 184.56C167.553 184.373 167.147 184.28 166.699 184.28C166.055 184.28 165.505 184.485 165.047 184.896C164.599 185.307 164.343 185.876 164.277 186.604H169.121ZM173.393 184.574C173.617 184.135 173.934 183.795 174.345 183.552C174.765 183.309 175.274 183.188 175.871 183.188V184.504H175.535C174.107 184.504 173.393 185.279 173.393 186.828V191H172.119V183.328H173.393V184.574ZM180.688 191.126C179.969 191.126 179.316 190.963 178.728 190.636C178.149 190.309 177.692 189.847 177.356 189.25C177.029 188.643 176.866 187.943 176.866 187.15C176.866 186.366 177.034 185.675 177.37 185.078C177.715 184.471 178.182 184.009 178.77 183.692C179.358 183.365 180.016 183.202 180.744 183.202C181.472 183.202 182.13 183.365 182.718 183.692C183.306 184.009 183.768 184.467 184.104 185.064C184.449 185.661 184.622 186.357 184.622 187.15C184.622 187.943 184.444 188.643 184.09 189.25C183.744 189.847 183.273 190.309 182.676 190.636C182.078 190.963 181.416 191.126 180.688 191.126ZM180.688 190.006C181.145 190.006 181.574 189.899 181.976 189.684C182.377 189.469 182.699 189.147 182.942 188.718C183.194 188.289 183.32 187.766 183.32 187.15C183.32 186.534 183.198 186.011 182.956 185.582C182.713 185.153 182.396 184.835 182.004 184.63C181.612 184.415 181.187 184.308 180.73 184.308C180.263 184.308 179.834 184.415 179.442 184.63C179.059 184.835 178.751 185.153 178.518 185.582C178.284 186.011 178.168 186.534 178.168 187.15C178.168 187.775 178.28 188.303 178.504 188.732C178.737 189.161 179.045 189.483 179.428 189.698C179.81 189.903 180.23 190.006 180.688 190.006ZM189.013 191.126C188.425 191.126 187.897 191.028 187.431 190.832C186.964 190.627 186.595 190.347 186.325 189.992C186.054 189.628 185.905 189.213 185.877 188.746H187.193C187.23 189.129 187.407 189.441 187.725 189.684C188.051 189.927 188.476 190.048 188.999 190.048C189.484 190.048 189.867 189.941 190.147 189.726C190.427 189.511 190.567 189.241 190.567 188.914C190.567 188.578 190.417 188.331 190.119 188.172C189.82 188.004 189.358 187.841 188.733 187.682C188.163 187.533 187.697 187.383 187.333 187.234C186.978 187.075 186.67 186.847 186.409 186.548C186.157 186.24 186.031 185.839 186.031 185.344C186.031 184.952 186.147 184.593 186.381 184.266C186.614 183.939 186.945 183.683 187.375 183.496C187.804 183.3 188.294 183.202 188.845 183.202C189.694 183.202 190.38 183.417 190.903 183.846C191.425 184.275 191.705 184.863 191.743 185.61H190.469C190.441 185.209 190.277 184.887 189.979 184.644C189.689 184.401 189.297 184.28 188.803 184.28C188.345 184.28 187.981 184.378 187.711 184.574C187.44 184.77 187.305 185.027 187.305 185.344C187.305 185.596 187.384 185.806 187.543 185.974C187.711 186.133 187.916 186.263 188.159 186.366C188.411 186.459 188.756 186.567 189.195 186.688C189.745 186.837 190.193 186.987 190.539 187.136C190.884 187.276 191.178 187.491 191.421 187.78C191.673 188.069 191.803 188.447 191.813 188.914C191.813 189.334 191.696 189.712 191.463 190.048C191.229 190.384 190.898 190.65 190.469 190.846C190.049 191.033 189.563 191.126 189.013 191.126ZM194.017 191.084C193.775 191.084 193.569 191 193.401 190.832C193.233 190.664 193.149 190.459 193.149 190.216C193.149 189.973 193.233 189.768 193.401 189.6C193.569 189.432 193.775 189.348 194.017 189.348C194.251 189.348 194.447 189.432 194.605 189.6C194.773 189.768 194.857 189.973 194.857 190.216C194.857 190.459 194.773 190.664 194.605 190.832C194.447 191 194.251 191.084 194.017 191.084Z" fill="white"/>
<path d="M38.44 93.168C37.272 93.168 36.216 92.968 35.272 92.568C34.344 92.168 33.608 91.592 33.064 90.84C32.52 90.088 32.24 89.2 32.224 88.176H35.824C35.872 88.864 36.112 89.408 36.544 89.808C36.992 90.208 37.6 90.408 38.368 90.408C39.152 90.408 39.768 90.224 40.216 89.856C40.664 89.472 40.888 88.976 40.888 88.368C40.888 87.872 40.736 87.464 40.432 87.144C40.128 86.824 39.744 86.576 39.28 86.4C38.832 86.208 38.208 86 37.408 85.776C36.32 85.456 35.432 85.144 34.744 84.84C34.072 84.52 33.488 84.048 32.992 83.424C32.512 82.784 32.272 81.936 32.272 80.88C32.272 79.888 32.52 79.024 33.016 78.288C33.512 77.552 34.208 76.992 35.104 76.608C36 76.208 37.024 76.008 38.176 76.008C39.904 76.008 41.304 76.432 42.376 77.28C43.464 78.112 44.064 79.28 44.176 80.784H40.48C40.448 80.208 40.2 79.736 39.736 79.368C39.288 78.984 38.688 78.792 37.936 78.792C37.28 78.792 36.752 78.96 36.352 79.296C35.968 79.632 35.776 80.12 35.776 80.76C35.776 81.208 35.92 81.584 36.208 81.888C36.512 82.176 36.88 82.416 37.312 82.608C37.76 82.784 38.384 82.992 39.184 83.232C40.272 83.552 41.16 83.872 41.848 84.192C42.536 84.512 43.128 84.992 43.624 85.632C44.12 86.272 44.368 87.112 44.368 88.152C44.368 89.048 44.136 89.88 43.672 90.648C43.208 91.416 42.528 92.032 41.632 92.496C40.736 92.944 39.672 93.168 38.44 93.168ZM59.641 86.064C59.641 86.544 59.609 86.976 59.545 87.36H49.825C49.905 88.32 50.241 89.072 50.833 89.616C51.425 90.16 52.153 90.432 53.017 90.432C54.265 90.432 55.153 89.896 55.681 88.824H59.305C58.921 90.104 58.185 91.16 57.097 91.992C56.009 92.808 54.673 93.216 53.089 93.216C51.809 93.216 50.657 92.936 49.633 92.376C48.625 91.8 47.833 90.992 47.257 89.952C46.697 88.912 46.417 87.712 46.417 86.352C46.417 84.976 46.697 83.768 47.257 82.728C47.817 81.688 48.601 80.888 49.609 80.328C50.617 79.768 51.777 79.488 53.089 79.488C54.353 79.488 55.481 79.76 56.473 80.304C57.481 80.848 58.257 81.624 58.801 82.632C59.361 83.624 59.641 84.768 59.641 86.064ZM56.161 85.104C56.145 84.24 55.833 83.552 55.225 83.04C54.617 82.512 53.873 82.248 52.993 82.248C52.161 82.248 51.457 82.504 50.881 83.016C50.321 83.512 49.977 84.208 49.849 85.104H56.161ZM65.4535 75.24V93H62.0935V75.24H65.4535ZM72.1332 81.648C72.5652 81.008 73.1572 80.488 73.9092 80.088C74.6772 79.688 75.5492 79.488 76.5252 79.488C77.6612 79.488 78.6852 79.768 79.5972 80.328C80.5252 80.888 81.2532 81.688 81.7812 82.728C82.3252 83.752 82.5972 84.944 82.5972 86.304C82.5972 87.664 82.3252 88.872 81.7812 89.928C81.2532 90.968 80.5252 91.776 79.5972 92.352C78.6852 92.928 77.6612 93.216 76.5252 93.216C75.5332 93.216 74.6612 93.024 73.9092 92.64C73.1732 92.24 72.5812 91.728 72.1332 91.104V93H68.7732V75.24H72.1332V81.648ZM79.1652 86.304C79.1652 85.504 78.9972 84.816 78.6612 84.24C78.3412 83.648 77.9092 83.2 77.3652 82.896C76.8372 82.592 76.2612 82.44 75.6372 82.44C75.0292 82.44 74.4532 82.6 73.9092 82.92C73.3812 83.224 72.9492 83.672 72.6132 84.264C72.2932 84.856 72.1332 85.552 72.1332 86.352C72.1332 87.152 72.2932 87.848 72.6132 88.44C72.9492 89.032 73.3812 89.488 73.9092 89.808C74.4532 90.112 75.0292 90.264 75.6372 90.264C76.2612 90.264 76.8372 90.104 77.3652 89.784C77.9092 89.464 78.3412 89.008 78.6612 88.416C78.9972 87.824 79.1652 87.12 79.1652 86.304ZM97.7588 79.704L89.5268 99.288H85.9508L88.8308 92.664L83.5028 79.704H87.2708L90.7028 88.992L94.1828 79.704H97.7588ZM111.073 93.168C109.905 93.168 108.849 92.968 107.905 92.568C106.977 92.168 106.241 91.592 105.697 90.84C105.153 90.088 104.873 89.2 104.857 88.176H108.457C108.505 88.864 108.745 89.408 109.177 89.808C109.625 90.208 110.233 90.408 111.001 90.408C111.785 90.408 112.401 90.224 112.849 89.856C113.297 89.472 113.521 88.976 113.521 88.368C113.521 87.872 113.369 87.464 113.065 87.144C112.761 86.824 112.377 86.576 111.913 86.4C111.465 86.208 110.841 86 110.041 85.776C108.953 85.456 108.065 85.144 107.377 84.84C106.705 84.52 106.121 84.048 105.625 83.424C105.145 82.784 104.905 81.936 104.905 80.88C104.905 79.888 105.153 79.024 105.649 78.288C106.145 77.552 106.841 76.992 107.737 76.608C108.633 76.208 109.657 76.008 110.809 76.008C112.537 76.008 113.937 76.432 115.009 77.28C116.097 78.112 116.697 79.28 116.809 80.784H113.113C113.081 80.208 112.833 79.736 112.369 79.368C111.921 78.984 111.321 78.792 110.569 78.792C109.913 78.792 109.385 78.96 108.985 79.296C108.601 79.632 108.409 80.12 108.409 80.76C108.409 81.208 108.553 81.584 108.841 81.888C109.145 82.176 109.513 82.416 109.945 82.608C110.393 82.784 111.017 82.992 111.817 83.232C112.905 83.552 113.793 83.872 114.481 84.192C115.169 84.512 115.761 84.992 116.257 85.632C116.753 86.272 117.001 87.112 117.001 88.152C117.001 89.048 116.769 89.88 116.305 90.648C115.841 91.416 115.161 92.032 114.265 92.496C113.369 92.944 112.305 93.168 111.073 93.168ZM123.826 82.464V88.896C123.826 89.344 123.93 89.672 124.138 89.88C124.362 90.072 124.73 90.168 125.242 90.168H126.802V93H124.69C121.858 93 120.442 91.624 120.442 88.872V82.464H118.858V79.704H120.442V76.416H123.826V79.704H126.802V82.464H123.826ZM141.771 79.704V93H138.387V91.32C137.955 91.896 137.387 92.352 136.683 92.688C135.995 93.008 135.243 93.168 134.427 93.168C133.387 93.168 132.467 92.952 131.667 92.52C130.867 92.072 130.235 91.424 129.771 90.576C129.323 89.712 129.099 88.688 129.099 87.504V79.704H132.459V87.024C132.459 88.08 132.723 88.896 133.251 89.472C133.779 90.032 134.499 90.312 135.411 90.312C136.339 90.312 137.067 90.032 137.595 89.472C138.123 88.896 138.387 88.08 138.387 87.024V79.704H141.771ZM144.222 86.304C144.222 84.96 144.486 83.768 145.014 82.728C145.558 81.688 146.286 80.888 147.198 80.328C148.126 79.768 149.158 79.488 150.294 79.488C151.286 79.488 152.15 79.688 152.886 80.088C153.638 80.488 154.238 80.992 154.686 81.6V79.704H158.07V93H154.686V91.056C154.254 91.68 153.654 92.2 152.886 92.616C152.134 93.016 151.262 93.216 150.27 93.216C149.15 93.216 148.126 92.928 147.198 92.352C146.286 91.776 145.558 90.968 145.014 89.928C144.486 88.872 144.222 87.664 144.222 86.304ZM154.686 86.352C154.686 85.536 154.526 84.84 154.206 84.264C153.886 83.672 153.454 83.224 152.91 82.92C152.366 82.6 151.782 82.44 151.158 82.44C150.534 82.44 149.958 82.592 149.43 82.896C148.902 83.2 148.47 83.648 148.134 84.24C147.814 84.816 147.654 85.504 147.654 86.304C147.654 87.104 147.814 87.808 148.134 88.416C148.47 89.008 148.902 89.464 149.43 89.784C149.974 90.104 150.55 90.264 151.158 90.264C151.782 90.264 152.366 90.112 152.91 89.808C153.454 89.488 153.886 89.04 154.206 88.464C154.526 87.872 154.686 87.168 154.686 86.352ZM164.711 81.768C165.143 81.064 165.703 80.512 166.391 80.112C167.095 79.712 167.895 79.512 168.791 79.512V83.04H167.903C166.847 83.04 166.047 83.288 165.503 83.784C164.975 84.28 164.711 85.144 164.711 86.376V93H161.351V79.704H164.711V81.768ZM174.966 82.464V88.896C174.966 89.344 175.07 89.672 175.278 89.88C175.502 90.072 175.87 90.168 176.382 90.168H177.942V93H175.83C172.998 93 171.582 91.624 171.582 88.872V82.464H169.998V79.704H171.582V76.416H174.966V79.704H177.942V82.464H174.966Z" fill="white"/>
<path opacity="0.7" d="M38.686 53.298C38.686 53.802 38.56 54.2687 38.308 54.698C38.056 55.118 37.6827 55.4587 37.188 55.72C36.6933 55.972 36.0913 56.098 35.382 56.098C34.682 56.098 34.0567 55.9813 33.506 55.748C32.9553 55.5053 32.512 55.16 32.176 54.712C31.8493 54.264 31.6627 53.7413 31.616 53.144H33.716C33.7627 53.5453 33.9213 53.8813 34.192 54.152C34.472 54.4133 34.8407 54.544 35.298 54.544C35.7087 54.544 36.0213 54.4367 36.236 54.222C36.46 53.998 36.572 53.7133 36.572 53.368C36.572 53.06 36.4833 52.808 36.306 52.612C36.1287 52.4067 35.9047 52.2433 35.634 52.122C35.3633 52.0007 34.99 51.8607 34.514 51.702C33.898 51.4967 33.394 51.296 33.002 51.1C32.61 50.8947 32.274 50.6007 31.994 50.218C31.7233 49.8353 31.588 49.336 31.588 48.72C31.588 47.8707 31.8913 47.2033 32.498 46.718C33.114 46.2233 33.926 45.976 34.934 45.976C35.9793 45.976 36.81 46.228 37.426 46.732C38.0513 47.236 38.406 47.908 38.49 48.748H36.362C36.306 48.3933 36.1567 48.104 35.914 47.88C35.6713 47.6467 35.34 47.53 34.92 47.53C34.556 47.53 34.262 47.628 34.038 47.824C33.814 48.0107 33.702 48.286 33.702 48.65C33.702 48.9393 33.786 49.182 33.954 49.378C34.1313 49.5647 34.3507 49.7187 34.612 49.84C34.8827 49.9613 35.2467 50.0967 35.704 50.246C36.3387 50.47 36.852 50.68 37.244 50.876C37.6453 51.072 37.986 51.366 38.266 51.758C38.546 52.15 38.686 52.6633 38.686 53.298ZM47.5601 48.244V56H45.5861V54.432C45.3808 54.9547 45.0401 55.3653 44.5641 55.664C44.0975 55.9533 43.5561 56.098 42.9401 56.098C42.0441 56.098 41.3301 55.804 40.7981 55.216C40.2661 54.628 40.0001 53.8067 40.0001 52.752V48.244H41.9601V52.528C41.9601 53.144 42.1188 53.6247 42.4361 53.97C42.7535 54.306 43.1828 54.474 43.7241 54.474C44.2935 54.474 44.7461 54.292 45.0821 53.928C45.4181 53.564 45.5861 53.0413 45.5861 52.36V48.244H47.5601ZM53.989 48.146C54.6423 48.146 55.2303 48.3047 55.753 48.622C56.2757 48.9393 56.6817 49.4013 56.971 50.008C57.2697 50.6053 57.419 51.31 57.419 52.122C57.419 52.934 57.2697 53.6433 56.971 54.25C56.6817 54.8473 56.2757 55.3047 55.753 55.622C55.2303 55.9393 54.6423 56.098 53.989 56.098C53.3357 56.098 52.7757 55.944 52.309 55.636C51.8517 55.3187 51.525 54.8987 51.329 54.376V59.696H49.355V48.244H51.329V49.854C51.525 49.3313 51.8517 48.916 52.309 48.608C52.7757 48.3 53.3357 48.146 53.989 48.146ZM53.373 49.868C52.7757 49.868 52.281 50.0733 51.889 50.484C51.5063 50.8853 51.315 51.4313 51.315 52.122C51.315 52.8033 51.5063 53.3493 51.889 53.76C52.281 54.1613 52.7757 54.362 53.373 54.362C53.989 54.362 54.4837 54.166 54.857 53.774C55.2303 53.3727 55.417 52.822 55.417 52.122C55.417 51.422 55.2303 50.8713 54.857 50.47C54.4837 50.0687 53.989 49.868 53.373 49.868ZM63.4499 48.146C64.1033 48.146 64.6913 48.3047 65.2139 48.622C65.7366 48.9393 66.1426 49.4013 66.4319 50.008C66.7306 50.6053 66.8799 51.31 66.8799 52.122C66.8799 52.934 66.7306 53.6433 66.4319 54.25C66.1426 54.8473 65.7366 55.3047 65.2139 55.622C64.6913 55.9393 64.1033 56.098 63.4499 56.098C62.7966 56.098 62.2366 55.944 61.7699 55.636C61.3126 55.3187 60.9859 54.8987 60.7899 54.376V59.696H58.8159V48.244H60.7899V49.854C60.9859 49.3313 61.3126 48.916 61.7699 48.608C62.2366 48.3 62.7966 48.146 63.4499 48.146ZM62.8339 49.868C62.2366 49.868 61.7419 50.0733 61.3499 50.484C60.9673 50.8853 60.7759 51.4313 60.7759 52.122C60.7759 52.8033 60.9673 53.3493 61.3499 53.76C61.7419 54.1613 62.2366 54.362 62.8339 54.362C63.4499 54.362 63.9446 54.166 64.3179 53.774C64.6913 53.3727 64.8779 52.822 64.8779 52.122C64.8779 51.422 64.6913 50.8713 64.3179 50.47C63.9446 50.0687 63.4499 49.868 62.8339 49.868ZM71.8609 48.146C72.6169 48.146 73.2935 48.3047 73.8909 48.622C74.4975 48.9393 74.9735 49.4013 75.3189 50.008C75.6642 50.6053 75.8369 51.31 75.8369 52.122C75.8369 52.934 75.6642 53.6387 75.3189 54.236C74.9735 54.8333 74.4975 55.2953 73.8909 55.622C73.2935 55.9393 72.6169 56.098 71.8609 56.098C71.1049 56.098 70.4235 55.9393 69.8169 55.622C69.2195 55.2953 68.7482 54.8333 68.4029 54.236C68.0575 53.6387 67.8849 52.934 67.8849 52.122C67.8849 51.31 68.0575 50.6053 68.4029 50.008C68.7482 49.4013 69.2195 48.9393 69.8169 48.622C70.4235 48.3047 71.1049 48.146 71.8609 48.146ZM71.8609 49.854C71.3102 49.854 70.8435 50.05 70.4609 50.442C70.0782 50.8247 69.8869 51.3847 69.8869 52.122C69.8869 52.8593 70.0782 53.424 70.4609 53.816C70.8435 54.1987 71.3102 54.39 71.8609 54.39C72.4115 54.39 72.8782 54.1987 73.2609 53.816C73.6435 53.424 73.8349 52.8593 73.8349 52.122C73.8349 51.3847 73.6435 50.8247 73.2609 50.442C72.8782 50.05 72.4115 49.854 71.8609 49.854ZM79.2059 49.728C79.4953 49.2333 79.8779 48.846 80.3539 48.566C80.8299 48.2767 81.3619 48.132 81.9499 48.132V50.246H81.3759C79.9293 50.246 79.2059 50.918 79.2059 52.262V56H77.2319V48.244H79.2059V49.728ZM87.1865 54.306V56H86.1505C85.2825 56 84.6152 55.79 84.1485 55.37C83.6912 54.95 83.4625 54.25 83.4625 53.27V49.91H82.3845V48.244H83.4625V46.326H85.4365V48.244H87.1725V49.91H85.4365V53.298C85.4365 53.6713 85.5112 53.9327 85.6605 54.082C85.8098 54.2313 86.0618 54.306 86.4165 54.306H87.1865ZM97.6758 54.012H93.7138L93.0138 56H90.9278L94.5678 46.228H96.8218L100.448 56H98.3618L97.6758 54.012ZM97.1438 52.514L95.6878 48.342L94.2318 52.514H97.1438ZM104.187 48.146C105.13 48.146 105.886 48.384 106.455 48.86C107.025 49.336 107.379 49.9707 107.519 50.764H105.671C105.597 50.3907 105.429 50.092 105.167 49.868C104.906 49.644 104.565 49.532 104.145 49.532C103.809 49.532 103.548 49.6113 103.361 49.77C103.175 49.9287 103.081 50.1433 103.081 50.414C103.081 50.6287 103.156 50.8013 103.305 50.932C103.455 51.0627 103.641 51.1653 103.865 51.24C104.089 51.3147 104.411 51.4033 104.831 51.506C105.419 51.6367 105.895 51.7767 106.259 51.926C106.633 52.066 106.95 52.2947 107.211 52.612C107.482 52.92 107.617 53.34 107.617 53.872C107.617 54.5347 107.356 55.0713 106.833 55.482C106.32 55.8927 105.625 56.098 104.747 56.098C103.739 56.098 102.932 55.874 102.325 55.426C101.719 54.9687 101.35 54.32 101.219 53.48H103.109C103.156 53.8627 103.324 54.166 103.613 54.39C103.903 54.6047 104.281 54.712 104.747 54.712C105.083 54.712 105.34 54.6327 105.517 54.474C105.695 54.306 105.783 54.0913 105.783 53.83C105.783 53.606 105.704 53.424 105.545 53.284C105.396 53.144 105.205 53.0367 104.971 52.962C104.747 52.8873 104.425 52.7987 104.005 52.696C103.427 52.5653 102.955 52.4347 102.591 52.304C102.237 52.164 101.929 51.9447 101.667 51.646C101.415 51.3473 101.289 50.9367 101.289 50.414C101.289 49.742 101.546 49.196 102.059 48.776C102.573 48.356 103.282 48.146 104.187 48.146ZM111.761 48.146C112.704 48.146 113.46 48.384 114.029 48.86C114.599 49.336 114.953 49.9707 115.093 50.764H113.245C113.171 50.3907 113.003 50.092 112.741 49.868C112.48 49.644 112.139 49.532 111.719 49.532C111.383 49.532 111.122 49.6113 110.935 49.77C110.749 49.9287 110.655 50.1433 110.655 50.414C110.655 50.6287 110.73 50.8013 110.879 50.932C111.029 51.0627 111.215 51.1653 111.439 51.24C111.663 51.3147 111.985 51.4033 112.405 51.506C112.993 51.6367 113.469 51.7767 113.833 51.926C114.207 52.066 114.524 52.2947 114.785 52.612C115.056 52.92 115.191 53.34 115.191 53.872C115.191 54.5347 114.93 55.0713 114.407 55.482C113.894 55.8927 113.199 56.098 112.321 56.098C111.313 56.098 110.506 55.874 109.899 55.426C109.293 54.9687 108.924 54.32 108.793 53.48H110.683C110.73 53.8627 110.898 54.166 111.187 54.39C111.477 54.6047 111.855 54.712 112.321 54.712C112.657 54.712 112.914 54.6327 113.091 54.474C113.269 54.306 113.357 54.0913 113.357 53.83C113.357 53.606 113.278 53.424 113.119 53.284C112.97 53.144 112.779 53.0367 112.545 52.962C112.321 52.8873 111.999 52.7987 111.579 52.696C111.001 52.5653 110.529 52.4347 110.165 52.304C109.811 52.164 109.503 51.9447 109.241 51.646C108.989 51.3473 108.863 50.9367 108.863 50.414C108.863 49.742 109.12 49.196 109.633 48.776C110.147 48.356 110.856 48.146 111.761 48.146ZM116.438 46.018C116.438 45.7007 116.55 45.444 116.774 45.248C116.998 45.0427 117.292 44.94 117.656 44.94C118.02 44.94 118.314 45.0427 118.538 45.248C118.762 45.444 118.874 45.7007 118.874 46.018C118.874 46.326 118.762 46.5827 118.538 46.788C118.314 46.984 118.02 47.082 117.656 47.082C117.292 47.082 116.998 46.984 116.774 46.788C116.55 46.5827 116.438 46.326 116.438 46.018ZM118.636 48.244V56H116.662V48.244H118.636ZM123.095 48.146C124.038 48.146 124.794 48.384 125.363 48.86C125.933 49.336 126.287 49.9707 126.427 50.764H124.579C124.505 50.3907 124.337 50.092 124.075 49.868C123.814 49.644 123.473 49.532 123.053 49.532C122.717 49.532 122.456 49.6113 122.269 49.77C122.083 49.9287 121.989 50.1433 121.989 50.414C121.989 50.6287 122.064 50.8013 122.213 50.932C122.363 51.0627 122.549 51.1653 122.773 51.24C122.997 51.3147 123.319 51.4033 123.739 51.506C124.327 51.6367 124.803 51.7767 125.167 51.926C125.541 52.066 125.858 52.2947 126.119 52.612C126.39 52.92 126.525 53.34 126.525 53.872C126.525 54.5347 126.264 55.0713 125.741 55.482C125.228 55.8927 124.533 56.098 123.655 56.098C122.647 56.098 121.84 55.874 121.233 55.426C120.627 54.9687 120.258 54.32 120.127 53.48H122.017C122.064 53.8627 122.232 54.166 122.521 54.39C122.811 54.6047 123.189 54.712 123.655 54.712C123.991 54.712 124.248 54.6327 124.425 54.474C124.603 54.306 124.691 54.0913 124.691 53.83C124.691 53.606 124.612 53.424 124.453 53.284C124.304 53.144 124.113 53.0367 123.879 52.962C123.655 52.8873 123.333 52.7987 122.913 52.696C122.335 52.5653 121.863 52.4347 121.499 52.304C121.145 52.164 120.837 51.9447 120.575 51.646C120.323 51.3473 120.197 50.9367 120.197 50.414C120.197 49.742 120.454 49.196 120.967 48.776C121.481 48.356 122.19 48.146 123.095 48.146ZM132.14 54.306V56H131.104C130.236 56 129.568 55.79 129.102 55.37C128.644 54.95 128.416 54.25 128.416 53.27V49.91H127.338V48.244H128.416V46.326H130.39V48.244H132.126V49.91H130.39V53.298C130.39 53.6713 130.464 53.9327 130.614 54.082C130.763 54.2313 131.015 54.306 131.37 54.306H132.14Z" fill="white"/>
</svg>
